# ProBuilder 4.2.3
# https://unity3d.com/unity/features/worldbuilding/probuilder
# 1/30/2020 8:36:21 PM

mtllib ./geometry.mtl
o geometry

g Cube
v 10 0 9.999999
v -10 0 9.999999
v 10 1 9.999999
v -10 1 9.999999
v -10 0 -10
v -10 1 -10
v 10 0 -10
v 10 1 -10
v 6 1 -3
v 5.75 1 -3
v 6 3.750001 -3.000001
v 5.75 3.750001 -3.000001
v 5.75 1 -3.25
v 5.75 3.750001 -3.250001
v 6 1 -3.25
v 6 3.750001 -3.250001
v 2 1 7
v 1 1 7
v 2 3.750001 6.999999
v 1 3.750001 6.999999
v 1 1 6
v 1 3.750001 5.999999
v 2 1 6
v 2 3.750001 5.999999
v 6 1 -1.5
v 5.75 1 -1.5
v 6 3.750001 -1.500001
v 5.75 3.750001 -1.500001
v 5.75 1 -1.75
v 5.75 3.750001 -1.750001
v 6 1 -1.75
v 6 3.750001 -1.750001
v -1.999999 1 -1.000001
v -6 1 -1
v -1.999999 2 -1.000001
v -6 2 -1
v -6 1 -6
v -6 2 -6
v -1.999999 1 -6
v -1.999999 2 -6
v -4 1 2
v -5 1 2
v -4 4.000001 1.999999
v -5 4.000001 1.999999
v -5 1 1
v -5 4.000001 0.999999
v -4 1 1
v -4 4.000001 0.999999
v 4 1 4
v 2 1 4
v 4 2 4
v 2 2 4
v 2 1 2
v 2 2 2
v 4 1 2
v 4 2 2
v -5 1 4
v -6 1 4
v -5 2 4
v -6 2 4
v -6 1 3
v -6 2 3
v -5 1 3
v -5 2 3
v 1 1 0
v 0 1 0
v 1 4.000001 -1.430511E-06
v 2.384186E-07 4.000001 -1.430511E-06
v 0 1 -1
v 2.384186E-07 4.000001 -1.000001
v 1 1 -1
v 1 4.000001 -1.000001
v 5 1 -6
v 4 1 -6
v 5 4.000001 -6.000001
v 4 4.000001 -6.000001
v 4 1 -7
v 4 4.000001 -7.000001
v 5 1 -7
v 5 4.000001 -7.000001
v -3 2 -4
v -4 2 -4
v -3 5.000001 -4.000001
v -4 5.000001 -4.000001
v -4 2 -5
v -4 5.000001 -5.000001
v -3 2 -5
v -3 5.000001 -5.000001
v 1 1 4
v -1 1 4
v 1 3.750001 3.999999
v -1 3.750001 3.999999
v -1 1 3.75
v -1 3.750001 3.749999
v 1 1 3.75
v 1 3.750001 3.749999
v 6 1 -3.5
v 5.75 1 -3.5
v 6 3.750001 -3.500001
v 5.75 3.750001 -3.500001
v 5.75 1 -3.75
v 5.75 3.750001 -3.750001
v 6 1 -3.75
v 6 3.750001 -3.750001
v 6 1 2
v 5.75 1 2
v 6 3.750001 1.999999
v 5.75 3.750001 1.999999
v 5.75 1 1.75
v 5.75 3.750001 1.749999
v 6 1 1.75
v 6 3.750001 1.749999
v 6 1 -4.5
v 5.75 1 -4.5
v 6 3.750001 -4.500001
v 5.75 3.750001 -4.500001
v 5.75 1 -4.75
v 5.75 3.750001 -4.750001
v 6 1 -4.75
v 6 3.750001 -4.750001
v 6 1 -5
v 5.75 1 -5
v 6 3.750001 -5.000001
v 5.75 3.750001 -5.000001
v 5.75 1 -5.25
v 5.75 3.750001 -5.250001
v 6 1 -5.25
v 6 3.750001 -5.250001
v 6 1 -5.5
v 5.75 1 -5.5
v 6 3.750001 -5.500001
v 5.75 3.750001 -5.500001
v 5.75 1 -5.75
v 5.75 3.750001 -5.750001
v 6 1 -5.75
v 6 3.750001 -5.750001
v 1 1 -6
v 0 1 -6
v 1 4.000001 -6.000001
v 2.384186E-07 4.000001 -6.000001
v 0 1 -7
v 2.384186E-07 4.000001 -7.000001
v 1 1 -7
v 1 4.000001 -7.000001
v -4 1 7
v -5 1 7
v -4 3 7
v -5 3 7
v -5 1 6
v -5 3 6
v -4 1 6
v -4 3 6
v -0.75 1 3.75
v -0.9999995 1 3.75
v -0.75 3.750001 3.749999
v -0.9999995 3.750001 3.749999
v -0.9999995 1 2
v -0.9999995 3.750001 1.999999
v -0.75 1 2
v -0.75 3.750001 1.999999
v -8 1 5
v -8.25 1 5
v -8 3.750001 4.999999
v -8.25 3.750001 4.999999
v -8.25 1 4.75
v -8.25 3.750001 4.749999
v -8 1 4.75
v -8 3.750001 4.749999
v -8 1 4.5
v -8.25 1 4.5
v -8 3.750001 4.499999
v -8.25 3.750001 4.499999
v -8.25 1 4.25
v -8.25 3.750001 4.249999
v -8 1 4.25
v -8 3.750001 4.249999
v -8 1 4
v -8.25 1 4
v -8 3.750001 3.999999
v -8.25 3.750001 3.999999
v -8.25 1 3.75
v -8.25 3.750001 3.749999
v -8 1 3.75
v -8 3.750001 3.749999
v -8 1 3.5
v -8.25 1 3.5
v -8 3.750001 3.499999
v -8.25 3.750001 3.499999
v -8.25 1 3.25
v -8.25 3.750001 3.249999
v -8 1 3.25
v -8 3.750001 3.249999
v -8 1 3
v -8.25 1 3
v -8 3.750001 2.999999
v -8.25 3.750001 2.999999
v -8.25 1 2.75
v -8.25 3.750001 2.749999
v -8 1 2.75
v -8 3.750001 2.749999
v -8 1 2.5
v -8.25 1 2.5
v -8 3.750001 2.499999
v -8.25 3.750001 2.499999
v -8.25 1 2.25
v -8.25 3.750001 2.249999
v -8 1 2.25
v -8 3.750001 2.249999
v -8 1 2
v -8.25 1 2
v -8 3.750001 1.999999
v -8.25 3.750001 1.999999
v -8.25 1 1.75
v -8.25 3.750001 1.749999
v -8 1 1.75
v -8 3.750001 1.749999
v -8 1 1.5
v -8.25 1 1.5
v -8 3.750001 1.499999
v -8.25 3.750001 1.499999
v -8.25 1 1.25
v -8.25 3.750001 1.249999
v -8 1 1.25
v -8 3.750001 1.249999
v -8 1 9
v -8.25 1 9
v -8 3.750001 8.999999
v -8.25 3.750001 8.999999
v -8.25 1 8.75
v -8.25 3.750001 8.749999
v -8 1 8.75
v -8 3.750001 8.749999
v -8 1 8.5
v -8.25 1 8.5
v -8 3.750001 8.499999
v -8.25 3.750001 8.499999
v -8.25 1 8.25
v -8.25 3.750001 8.249999
v -8 1 8.25
v -8 3.750001 8.249999
v -8 1 8
v -8.25 1 8
v -8 3.750001 7.999999
v -8.25 3.750001 7.999999
v -8.25 1 7.75
v -8.25 3.750001 7.749999
v -8 1 7.75
v -8 3.750001 7.749999
v -8 1 7.5
v -8.25 1 7.5
v -8 3.750001 7.499999
v -8.25 3.750001 7.499999
v -8.25 1 7.25
v -8.25 3.750001 7.249999
v -8 1 7.25
v -8 3.750001 7.249999
v -8 1 7
v -8.25 1 7
v -8 3.750001 6.999999
v -8.25 3.750001 6.999999
v -8.25 1 6.75
v -8.25 3.750001 6.749999
v -8 1 6.75
v -8 3.750001 6.749999
v -8 1 6.5
v -8.25 1 6.5
v -8 3.750001 6.499999
v -8.25 3.750001 6.499999
v -8.25 1 6.25
v -8.25 3.750001 6.249999
v -8 1 6.25
v -8 3.750001 6.249999
v -8 1 6
v -8.25 1 6
v -8 3.750001 5.999999
v -8.25 3.750001 5.999999
v -8.25 1 5.75
v -8.25 3.750001 5.749999
v -8 1 5.75
v -8 3.750001 5.749999
v -8 1 5.5
v -8.25 1 5.5
v -8 3.750001 5.499999
v -8.25 3.750001 5.499999
v -8.25 1 5.25
v -8.25 3.750001 5.249999
v -8 1 5.25
v -8 3.750001 5.249999
v 3 1 -4
v -9.536743E-07 1 -4
v 3 3.750001 -4.000001
v -9.536743E-07 3.750001 -4.000001
v -7.152557E-07 1 -4.25
v -7.152557E-07 3.750001 -4.250001
v 3 1 -4.25
v 3 3.750001 -4.250001
v 7 1 6.25
v 5 1 6.25
v 7 3.750001 6.249999
v 5 3.750001 6.249999
v 5 1 6
v 5 3.750001 5.999999
v 7 1 6
v 7 3.750001 5.999999
v -2 1 9
v -3 1 9
v -2 3 9
v -3 3 9
v -3 1 8
v -3 3 8
v -2 1 8
v -2 3 8
v 3 1 4.768372E-07
v 3 2 4.768372E-07
v 1 2 0
v 1 1 -2
v 1 2 -2
v 3 1 -2
v 3 2 -2
v 6 1 -2
v 5.75 1 -2
v 6 3.750001 -2.000001
v 5.75 3.750001 -2.000001
v 5.75 1 -2.25
v 5.75 3.750001 -2.250001
v 6 1 -2.25
v 6 3.750001 -2.250001
v 6 1 1.5
v 5.75 1 1.5
v 6 3.750001 1.499999
v 5.75 3.750001 1.499999
v 5.75 1 1.25
v 5.75 3.750001 1.249999
v 6 1 1.25
v 6 3.750001 1.249999
v 6 1 1
v 5.75 1 1
v 6 3.750001 0.9999993
v 5.75 3.750001 0.9999993
v 5.75 1 0.7499998
v 5.75 3.750001 0.7499993
v 6 1 0.7499998
v 6 3.750001 0.7499993
v 6 1 -2.5
v 5.75 1 -2.5
v 6 3.750001 -2.500001
v 5.75 3.750001 -2.500001
v 5.75 1 -2.75
v 5.75 3.750001 -2.750001
v 6 1 -2.75
v 6 3.750001 -2.750001
v 6 1 0.5
v 5.75 1 0.5
v 6 3.750001 0.4999993
v 5.75 3.750001 0.4999993
v 5.75 1 0.2499998
v 5.75 3.750001 0.2499993
v 6 1 0.2499998
v 6 3.750001 0.2499993
v 6 1 0
v 5.75 1 0
v 6 3.750001 -7.152557E-07
v 5.75 3.750001 -7.152557E-07
v 5.75 1 -0.2500002
v 5.75 3.750001 -0.2500007
v 6 1 -0.2500002
v 6 3.750001 -0.2500007
v 6 1 -0.5
v 5.75 1 -0.5
v 6 3.750001 -0.5000007
v 5.75 3.750001 -0.5000007
v 5.75 1 -0.7500002
v 5.75 3.750001 -0.7500007
v 6 1 -0.7500002
v 6 3.750001 -0.7500007
v 6 1 -1
v 5.75 1 -1
v 6 3.750001 -1.000001
v 5.75 3.750001 -1.000001
v 5.75 1 -1.25
v 5.75 3.750001 -1.250001
v 6 1 -1.25
v 6 3.750001 -1.250001
v 6 1 -4
v 5.75 1 -4
v 6 3.750001 -4.000001
v 5.75 3.750001 -4.000001
v 5.75 1 -4.25
v 5.75 3.750001 -4.250001
v 6 1 -4.25
v 6 3.750001 -4.250001
v -3 1 -7.75
v -5 1 -7.75
v -3 3.750001 -7.750001
v -5 3.750001 -7.750001
v -5 1 -8
v -5 3.750001 -8.000001
v -3 1 -8
v -3 3.750001 -8.000001
v -8 1.000001 -3
v -9 1.000001 -3
v -8 4.000002 -3.000002
v -9 4.000002 -3.000002
v -9 1 -6
v -9 4.000001 -6.000001
v -8 1 -6
v -8 4.000001 -6.000001
v -7 1 -6
v -7 2 -6
v -9 2 -6
v -9 1 -8
v -9 2 -8
v -7 1 -8
v -7 2 -8

vt 10 0
vt -10 0
vt 10 1
vt -10 1
vt 9.999998 0
vt 9.999998 1
vt -10 9.999999
vt 10 9.999999
vt -10 -10
vt 10 -10
vt 0 -1.192093E-07
vt -0.2499995 -1.192093E-07
vt 0 2.75
vt -0.2499995 2.75
vt -0.2500002 2.384186E-07
vt -0.2500007 2.750001
vt 0.25 1.192093E-07
vt 0.25 2.750001
vt 0.2499995 -3.33786E-06
vt 0 -0.2500033
vt 0.2499995 -0.2500033
vt -0.2499995 -0.2500002
vt -1 5.960464E-08
vt -1 2.750001
vt 1 1.788139E-07
vt 1 2.750001
vt 0 -1.000001
vt 1 -1.000001
vt -1 -1
vt 3.000001 0
vt 3.000001 1
vt -1 1
vt -5 0
vt 0 1
vt -5 1
vt 0.999999 0
vt -3.000002 0
vt 0.999999 1
vt -3.000002 1
vt 5 0
vt 5 1
vt -3.000001 -5
vt 1 -5
vt 3.000001 -5
vt -1 -5
vt 0 3.000001
vt -1 3.000001
vt 1 3.000001
vt -0.9999998 -5.960464E-08
vt 1 0.9999998
vt -0.9999998 0.9999998
vt -1 0.9999998
vt 0.9999998 0.9999998
vt 1 1
vt -1 -0.9999998
vt 1 -0.9999998
vt 0 0.9999998
vt -0.9999998 3.000001
vt 0.9999998 3
vt 0.9999998 -1.000001
vt -2 5.960464E-08
vt -2 2.750001
vt 2 -1.192093E-07
vt 2.000001 2.750001
vt 2 -0.2500033
vt -2 -0.2500002
vt 0 2
vt -1 2
vt 1 2
vt 0.7499998 2.384186E-07
vt 0.749999 2.750001
vt -0.7499998 3.576279E-07
vt -0.7499988 2.750001
vt 0 0.7499998
vt 0.2499995 0.7499995
vt 0.2499995 -1
vt -0.2499995 -1
vt -0.2499995 0.7499998
vt 0.25 -0.2500033
vt -0.25 -0.25
vt -3.000001 2.75
vt 3.000001 2.750001
vt 3.000001 -0.2500033
vt -3.000001 -0.25
vt -0.9999998 2
vt 0.9999998 2
vt 2 9.536743E-07
vt 1.999998 3.000002
vt -2 1.430511E-06
vt -1.999998 3.000002
vt 0 1.999999
vt 1 1.999999
vt 0 -0.9999995

vn 0 0 1
vn -1 0 4.768372E-08
vn 0 0 -1
vn 1 0 -4.768372E-08
vn 0 1 0
vn 0 -1 0

usemtl ProBuilderDefault
f 3/3/1 4/4/1 2/2/1 1/1/1
f 4/6/2 6/4/2 5/2/2 2/5/2
f 6/3/3 8/4/3 7/2/3 5/1/3
f 8/3/4 3/4/4 1/2/4 7/1/4
f 8/9/5 6/10/5 4/8/5 3/7/5
f 1/8/6 2/7/6 5/9/6 7/10/6
f 11/13/1 12/14/1 10/12/1 9/11/1
f 12/13/2 14/16/2 13/15/2 10/11/2
f 14/18/3 16/13/3 15/11/3 13/17/3
f 16/18/4 11/13/4 9/11/4 15/17/4
f 16/20/5 14/21/5 12/19/5 11/11/5
f 9/11/6 10/12/6 13/22/6 15/20/6
f 19/13/1 20/24/1 18/23/1 17/11/1
f 20/13/2 22/24/2 21/23/2 18/11/2
f 22/26/3 24/13/3 23/11/3 21/25/3
f 24/26/4 19/13/4 17/11/4 23/25/4
f 24/27/5 22/28/5 20/25/5 19/11/5
f 17/11/6 18/23/6 21/29/6 23/27/6
f 27/13/1 28/14/1 26/12/1 25/11/1
f 28/13/2 30/16/2 29/15/2 26/11/2
f 30/18/3 32/13/3 31/11/3 29/17/3
f 32/18/4 27/13/4 25/11/4 31/17/4
f 32/20/5 30/21/5 28/19/5 27/11/5
f 25/11/6 26/12/6 29/22/6 31/20/6
f 35/31/1 36/32/1 34/23/1 33/30/1
f 36/34/2 38/35/2 37/33/2 34/11/2
f 38/38/3 40/39/3 39/37/3 37/36/3
f 40/41/4 35/34/4 33/11/4 39/40/4
f 40/42/5 38/43/5 36/25/5 35/37/5
f 33/30/6 34/23/6 37/45/6 39/44/6
f 43/46/1 44/47/1 42/23/1 41/11/1
f 44/46/2 46/47/2 45/23/2 42/11/2
f 46/48/3 48/46/3 47/11/3 45/25/3
f 48/48/4 43/46/4 41/11/4 47/25/4
f 48/27/5 46/28/5 44/25/5 43/11/5
f 41/11/6 42/23/6 45/29/6 47/27/6
f 51/50/1 52/51/1 50/49/1 49/25/1
f 52/50/2 54/52/2 53/23/2 50/25/2
f 54/50/3 56/52/3 55/23/3 53/25/3
f 56/53/4 51/52/4 49/23/4 55/36/4
f 56/55/5 54/28/5 52/54/5 51/32/5
f 49/54/6 50/32/6 53/29/6 55/56/6
f 59/57/1 60/52/1 58/23/1 57/11/1
f 60/57/2 62/52/2 61/23/2 58/11/2
f 62/50/3 64/57/3 63/11/3 61/25/3
f 64/50/4 59/57/4 57/11/4 63/25/4
f 64/27/5 62/28/5 60/25/5 59/11/5
f 57/11/6 58/23/6 61/29/6 63/27/6
f 67/46/1 68/58/1 66/23/1 65/11/1
f 68/46/2 70/47/2 69/23/2 66/11/2
f 70/59/3 72/46/3 71/11/3 69/25/3
f 72/48/4 67/46/4 65/11/4 71/25/4
f 72/27/5 70/60/5 68/36/5 67/11/5
f 65/11/6 66/23/6 69/29/6 71/27/6
f 75/46/1 76/47/1 74/23/1 73/11/1
f 76/46/2 78/47/2 77/23/2 74/11/2
f 78/48/3 80/46/3 79/11/3 77/25/3
f 80/48/4 75/46/4 73/11/4 79/25/4
f 80/27/5 78/28/5 76/25/5 75/11/5
f 73/11/6 74/23/6 77/29/6 79/27/6
f 83/46/1 84/58/1 82/23/1 81/11/1
f 84/46/2 86/47/2 85/23/2 82/11/2
f 86/59/3 88/46/3 87/11/3 85/25/3
f 88/48/4 83/46/4 81/11/4 87/25/4
f 88/27/5 86/60/5 84/36/5 83/11/5
f 81/11/6 82/23/6 85/29/6 87/27/6
f 91/13/1 92/62/1 90/61/1 89/11/1
f 92/13/2 94/16/2 93/15/2 90/11/2
f 94/64/3 96/13/3 95/11/3 93/63/3
f 96/18/4 91/13/4 89/11/4 95/17/4
f 96/20/5 94/65/5 92/63/5 91/11/5
f 89/11/6 90/61/6 93/66/6 95/20/6
f 99/13/1 100/14/1 98/12/1 97/11/1
f 100/13/2 102/16/2 101/15/2 98/11/2
f 102/18/3 104/13/3 103/11/3 101/17/3
f 104/18/4 99/13/4 97/11/4 103/17/4
f 104/20/5 102/21/5 100/19/5 99/11/5
f 97/11/6 98/12/6 101/22/6 103/20/6
f 107/13/1 108/14/1 106/12/1 105/11/1
f 108/13/2 110/16/2 109/15/2 106/11/2
f 110/18/3 112/13/3 111/11/3 109/17/3
f 112/18/4 107/13/4 105/11/4 111/17/4
f 112/20/5 110/21/5 108/19/5 107/11/5
f 105/11/6 106/12/6 109/22/6 111/20/6
f 115/13/1 116/14/1 114/12/1 113/11/1
f 116/13/2 118/16/2 117/15/2 114/11/2
f 118/18/3 120/13/3 119/11/3 117/17/3
f 120/18/4 115/13/4 113/11/4 119/17/4
f 120/20/5 118/21/5 116/19/5 115/11/5
f 113/11/6 114/12/6 117/22/6 119/20/6
f 123/13/1 124/14/1 122/12/1 121/11/1
f 124/13/2 126/16/2 125/15/2 122/11/2
f 126/18/3 128/13/3 127/11/3 125/17/3
f 128/18/4 123/13/4 121/11/4 127/17/4
f 128/20/5 126/21/5 124/19/5 123/11/5
f 121/11/6 122/12/6 125/22/6 127/20/6
f 131/13/1 132/14/1 130/12/1 129/11/1
f 132/13/2 134/16/2 133/15/2 130/11/2
f 134/18/3 136/13/3 135/11/3 133/17/3
f 136/18/4 131/13/4 129/11/4 135/17/4
f 136/20/5 134/21/5 132/19/5 131/11/5
f 129/11/6 130/12/6 133/22/6 135/20/6
f 139/46/1 140/58/1 138/23/1 137/11/1
f 140/46/2 142/47/2 141/23/2 138/11/2
f 142/59/3 144/46/3 143/11/3 141/25/3
f 144/48/4 139/46/4 137/11/4 143/25/4
f 144/27/5 142/60/5 140/36/5 139/11/5
f 137/11/6 138/23/6 141/29/6 143/27/6
f 147/67/1 148/68/1 146/23/1 145/11/1
f 148/67/2 150/68/2 149/23/2 146/11/2
f 150/69/3 152/67/3 151/11/3 149/25/3
f 152/69/4 147/67/4 145/11/4 151/25/4
f 152/27/5 150/28/5 148/25/5 147/11/5
f 145/11/6 146/23/6 149/29/6 151/27/6
f 155/13/1 156/14/1 154/12/1 153/11/1
f 156/71/2 158/24/2 157/23/2 154/70/2
f 158/18/3 160/13/3 159/11/3 157/17/3
f 160/26/4 155/73/4 153/72/4 159/36/4
f 160/27/5 158/76/5 156/75/5 155/74/5
f 153/74/6 154/78/6 157/77/6 159/27/6
f 163/13/1 164/16/1 162/15/1 161/11/1
f 164/13/2 166/16/2 165/15/2 162/11/2
f 166/18/3 168/13/3 167/11/3 165/17/3
f 168/18/4 163/13/4 161/11/4 167/17/4
f 168/20/5 166/79/5 164/17/5 163/11/5
f 161/11/6 162/15/6 165/80/6 167/20/6
f 171/13/1 172/16/1 170/15/1 169/11/1
f 172/13/2 174/16/2 173/15/2 170/11/2
f 174/18/3 176/13/3 175/11/3 173/17/3
f 176/18/4 171/13/4 169/11/4 175/17/4
f 176/20/5 174/79/5 172/17/5 171/11/5
f 169/11/6 170/15/6 173/80/6 175/20/6
f 179/13/1 180/16/1 178/15/1 177/11/1
f 180/13/2 182/16/2 181/15/2 178/11/2
f 182/18/3 184/13/3 183/11/3 181/17/3
f 184/18/4 179/13/4 177/11/4 183/17/4
f 184/20/5 182/79/5 180/17/5 179/11/5
f 177/11/6 178/15/6 181/80/6 183/20/6
f 187/13/1 188/16/1 186/15/1 185/11/1
f 188/13/2 190/16/2 189/15/2 186/11/2
f 190/18/3 192/13/3 191/11/3 189/17/3
f 192/18/4 187/13/4 185/11/4 191/17/4
f 192/20/5 190/79/5 188/17/5 187/11/5
f 185/11/6 186/15/6 189/80/6 191/20/6
f 195/13/1 196/16/1 194/15/1 193/11/1
f 196/13/2 198/16/2 197/15/2 194/11/2
f 198/18/3 200/13/3 199/11/3 197/17/3
f 200/18/4 195/13/4 193/11/4 199/17/4
f 200/20/5 198/79/5 196/17/5 195/11/5
f 193/11/6 194/15/6 197/80/6 199/20/6
f 203/13/1 204/16/1 202/15/1 201/11/1
f 204/13/2 206/16/2 205/15/2 202/11/2
f 206/18/3 208/13/3 207/11/3 205/17/3
f 208/18/4 203/13/4 201/11/4 207/17/4
f 208/20/5 206/79/5 204/17/5 203/11/5
f 201/11/6 202/15/6 205/80/6 207/20/6
f 211/13/1 212/16/1 210/15/1 209/11/1
f 212/13/2 214/16/2 213/15/2 210/11/2
f 214/18/3 216/13/3 215/11/3 213/17/3
f 216/18/4 211/13/4 209/11/4 215/17/4
f 216/20/5 214/79/5 212/17/5 211/11/5
f 209/11/6 210/15/6 213/80/6 215/20/6
f 219/13/1 220/16/1 218/15/1 217/11/1
f 220/13/2 222/16/2 221/15/2 218/11/2
f 222/18/3 224/13/3 223/11/3 221/17/3
f 224/18/4 219/13/4 217/11/4 223/17/4
f 224/20/5 222/79/5 220/17/5 219/11/5
f 217/11/6 218/15/6 221/80/6 223/20/6
f 227/13/1 228/16/1 226/15/1 225/11/1
f 228/13/2 230/16/2 229/15/2 226/11/2
f 230/18/3 232/13/3 231/11/3 229/17/3
f 232/18/4 227/13/4 225/11/4 231/17/4
f 232/20/5 230/79/5 228/17/5 227/11/5
f 225/11/6 226/15/6 229/80/6 231/20/6
f 235/13/1 236/16/1 234/15/1 233/11/1
f 236/13/2 238/16/2 237/15/2 234/11/2
f 238/18/3 240/13/3 239/11/3 237/17/3
f 240/18/4 235/13/4 233/11/4 239/17/4
f 240/20/5 238/79/5 236/17/5 235/11/5
f 233/11/6 234/15/6 237/80/6 239/20/6
f 243/13/1 244/16/1 242/15/1 241/11/1
f 244/13/2 246/16/2 245/15/2 242/11/2
f 246/18/3 248/13/3 247/11/3 245/17/3
f 248/18/4 243/13/4 241/11/4 247/17/4
f 248/20/5 246/79/5 244/17/5 243/11/5
f 241/11/6 242/15/6 245/80/6 247/20/6
f 251/13/1 252/16/1 250/15/1 249/11/1
f 252/13/2 254/16/2 253/15/2 250/11/2
f 254/18/3 256/13/3 255/11/3 253/17/3
f 256/18/4 251/13/4 249/11/4 255/17/4
f 256/20/5 254/79/5 252/17/5 251/11/5
f 249/11/6 250/15/6 253/80/6 255/20/6
f 259/13/1 260/16/1 258/15/1 257/11/1
f 260/13/2 262/16/2 261/15/2 258/11/2
f 262/18/3 264/13/3 263/11/3 261/17/3
f 264/18/4 259/13/4 257/11/4 263/17/4
f 264/20/5 262/79/5 260/17/5 259/11/5
f 257/11/6 258/15/6 261/80/6 263/20/6
f 267/13/1 268/16/1 266/15/1 265/11/1
f 268/13/2 270/16/2 269/15/2 266/11/2
f 270/18/3 272/13/3 271/11/3 269/17/3
f 272/18/4 267/13/4 265/11/4 271/17/4
f 272/20/5 270/79/5 268/17/5 267/11/5
f 265/11/6 266/15/6 269/80/6 271/20/6
f 275/13/1 276/16/1 274/15/1 273/11/1
f 276/13/2 278/16/2 277/15/2 274/11/2
f 278/18/3 280/13/3 279/11/3 277/17/3
f 280/18/4 275/13/4 273/11/4 279/17/4
f 280/20/5 278/79/5 276/17/5 275/11/5
f 273/11/6 274/15/6 277/80/6 279/20/6
f 283/13/1 284/16/1 282/15/1 281/11/1
f 284/13/2 286/16/2 285/15/2 282/11/2
f 286/18/3 288/13/3 287/11/3 285/17/3
f 288/18/4 283/13/4 281/11/4 287/17/4
f 288/20/5 286/79/5 284/17/5 283/11/5
f 281/11/6 282/15/6 285/80/6 287/20/6
f 291/13/1 292/81/1 290/37/1 289/11/1
f 292/13/2 294/14/2 293/12/2 290/11/2
f 294/82/3 296/13/3 295/11/3 293/30/3
f 296/18/4 291/13/4 289/11/4 295/17/4
f 296/20/5 294/83/5 292/30/5 291/11/5
f 289/11/6 290/37/6 293/84/6 295/20/6
f 299/13/1 300/62/1 298/61/1 297/11/1
f 300/13/2 302/16/2 301/15/2 298/11/2
f 302/64/3 304/13/3 303/11/3 301/63/3
f 304/18/4 299/13/4 297/11/4 303/17/4
f 304/20/5 302/65/5 300/63/5 299/11/5
f 297/11/6 298/61/6 301/66/6 303/20/6
f 307/67/1 308/85/1 306/23/1 305/11/1
f 308/67/2 310/68/2 309/23/2 306/11/2
f 310/86/3 312/67/3 311/11/3 309/25/3
f 312/69/4 307/67/4 305/11/4 311/25/4
f 312/27/5 310/60/5 308/36/5 307/11/5
f 305/11/6 306/23/6 309/29/6 311/27/6
f 314/50/1 315/51/1 65/49/1 313/25/1
f 315/50/2 317/52/2 316/23/2 65/25/2
f 317/50/3 319/51/3 318/49/3 316/25/3
f 319/53/4 314/52/4 313/23/4 318/36/4
f 319/55/5 317/28/5 315/54/5 314/32/5
f 313/54/6 65/32/6 316/29/6 318/56/6
f 322/13/1 323/14/1 321/12/1 320/11/1
f 323/13/2 325/16/2 324/15/2 321/11/2
f 325/18/3 327/13/3 326/11/3 324/17/3
f 327/18/4 322/13/4 320/11/4 326/17/4
f 327/20/5 325/21/5 323/19/5 322/11/5
f 320/11/6 321/12/6 324/22/6 326/20/6
f 330/13/1 331/14/1 329/12/1 328/11/1
f 331/13/2 333/16/2 332/15/2 329/11/2
f 333/18/3 335/13/3 334/11/3 332/17/3
f 335/18/4 330/13/4 328/11/4 334/17/4
f 335/20/5 333/21/5 331/19/5 330/11/5
f 328/11/6 329/12/6 332/22/6 334/20/6
f 338/13/1 339/14/1 337/12/1 336/11/1
f 339/13/2 341/16/2 340/15/2 337/11/2
f 341/18/3 343/13/3 342/11/3 340/17/3
f 343/18/4 338/13/4 336/11/4 342/17/4
f 343/20/5 341/21/5 339/19/5 338/11/5
f 336/11/6 337/12/6 340/22/6 342/20/6
f 346/13/1 347/14/1 345/12/1 344/11/1
f 347/13/2 349/16/2 348/15/2 345/11/2
f 349/18/3 351/13/3 350/11/3 348/17/3
f 351/18/4 346/13/4 344/11/4 350/17/4
f 351/20/5 349/21/5 347/19/5 346/11/5
f 344/11/6 345/12/6 348/22/6 350/20/6
f 354/13/1 355/14/1 353/12/1 352/11/1
f 355/13/2 357/16/2 356/15/2 353/11/2
f 357/18/3 359/13/3 358/11/3 356/17/3
f 359/18/4 354/13/4 352/11/4 358/17/4
f 359/20/5 357/21/5 355/19/5 354/11/5
f 352/11/6 353/12/6 356/22/6 358/20/6
f 362/13/1 363/14/1 361/12/1 360/11/1
f 363/13/2 365/16/2 364/15/2 361/11/2
f 365/18/3 367/13/3 366/11/3 364/17/3
f 367/18/4 362/13/4 360/11/4 366/17/4
f 367/20/5 365/21/5 363/19/5 362/11/5
f 360/11/6 361/12/6 364/22/6 366/20/6
f 370/13/1 371/14/1 369/12/1 368/11/1
f 371/13/2 373/16/2 372/15/2 369/11/2
f 373/18/3 375/13/3 374/11/3 372/17/3
f 375/18/4 370/13/4 368/11/4 374/17/4
f 375/20/5 373/21/5 371/19/5 370/11/5
f 368/11/6 369/12/6 372/22/6 374/20/6
f 378/13/1 379/14/1 377/12/1 376/11/1
f 379/13/2 381/16/2 380/15/2 377/11/2
f 381/18/3 383/13/3 382/11/3 380/17/3
f 383/18/4 378/13/4 376/11/4 382/17/4
f 383/20/5 381/21/5 379/19/5 378/11/5
f 376/11/6 377/12/6 380/22/6 382/20/6
f 386/13/1 387/14/1 385/12/1 384/11/1
f 387/13/2 389/16/2 388/15/2 385/11/2
f 389/18/3 391/13/3 390/11/3 388/17/3
f 391/18/4 386/13/4 384/11/4 390/17/4
f 391/20/5 389/21/5 387/19/5 386/11/5
f 384/11/6 385/12/6 388/22/6 390/20/6
f 394/13/1 395/62/1 393/61/1 392/11/1
f 395/13/2 397/16/2 396/15/2 393/11/2
f 397/64/3 399/13/3 398/11/3 396/63/3
f 399/18/4 394/13/4 392/11/4 398/17/4
f 399/20/5 397/65/5 395/63/5 394/11/5
f 392/11/6 393/61/6 396/66/6 398/20/6
f 402/46/1 403/47/1 401/23/1 400/11/1
f 403/88/2 405/47/2 404/23/2 401/87/2
f 405/48/3 407/46/3 406/11/3 404/25/3
f 407/48/4 402/90/4 400/89/4 406/25/4
f 407/27/5 405/28/5 403/92/5 402/91/5
f 400/67/6 401/68/6 404/55/6 406/93/6
f 409/50/1 410/52/1 404/23/1 408/25/1
f 410/50/2 412/52/2 411/23/2 404/25/2
f 412/50/3 414/52/3 413/23/3 411/25/3
f 414/53/4 409/52/4 408/23/4 413/36/4
f 414/29/5 412/28/5 410/54/5 409/32/5
f 408/54/6 404/32/6 411/29/6 413/28/6

